  0
SECTION
  2
HEADER
  9
$ACADVER
  1
AC1009
  9
$INSUNITS
 70
6
  0
ENDSEC
  0
SECTION
  2
ENTITIES
  0
POLYLINE
  8
C-TOPO-MAJR
 66
1
 10
0.0
 20
0.0
 30
0.0
 70
8
  0
VERTEX
  8
C-TOPO-MAJR
 10
1000.00
 20
5000.00
 30
100.00
 70
32
  0
VERTEX
  8
C-TOPO-MAJR
 10
1000.00
 20
5000.00
 30
100.00
 70
32
  0
SEQEND
  8
C-TOPO-MAJR
  0
POLYLINE
  8
C-TOPO-MAJR
 66
1
 10
0.0
 20
0.0
 30
0.0
 70
8
  0
VERTEX
  8
C-TOPO-MAJR
 10
1048.55
 20
5000.00
 30
100.00
 70
32
  0
VERTEX
  8
C-TOPO-MAJR
 10
1050.00
 20
5001.58
 30
100.00
 70
32
  0
VERTEX
  8
C-TOPO-MAJR
 10
1056.35
 20
5000.00
 30
100.00
 70
32
  0
SEQEND
  8
C-TOPO-MAJR
  0
POLYLINE
  8
C-TOPO-MINR
 66
1
 10
0.0
 20
0.0
 30
0.0
 70
8
  0
VERTEX
  8
C-TOPO-MINR
 10
1022.23
 20
5000.00
 30
101.00
 70
32
  0
VERTEX
  8
C-TOPO-MINR
 10
1020.00
 20
5001.63
 30
101.00
 70
32
  0
VERTEX
  8
C-TOPO-MINR
 10
1011.78
 20
5010.00
 30
101.00
 70
32
  0
VERTEX
  8
C-TOPO-MINR
 10
1010.00
 20
5011.85
 30
101.00
 70
32
  0
VERTEX
  8
C-TOPO-MINR
 10
1002.20
 20
5020.00
 30
101.00
 70
32
  0
VERTEX
  8
C-TOPO-MINR
 10
1000.00
 20
5022.22
 30
101.00
 70
32
  0
SEQEND
  8
C-TOPO-MINR
  0
POLYLINE
  8
C-TOPO-MINR
 66
1
 10
0.0
 20
0.0
 30
0.0
 70
8
  0
VERTEX
  8
C-TOPO-MINR
 10
1037.94
 20
5000.00
 30
101.00
 70
32
  0
VERTEX
  8
C-TOPO-MINR
 10
1040.00
 20
5000.77
 30
101.00
 70
32
  0
VERTEX
  8
C-TOPO-MINR
 10
1048.37
 20
5010.00
 30
101.00
 70
32
  0
VERTEX
  8
C-TOPO-MINR
 10
1050.00
 20
5011.61
 30
101.00
 70
32
  0
VERTEX
  8
C-TOPO-MINR
 10
1057.36
 20
5020.00
 30
101.00
 70
32
  0
VERTEX
  8
C-TOPO-MINR
 10
1060.00
 20
5024.59
 30
101.00
 70
32
  0
VERTEX
  8
C-TOPO-MINR
 10
1064.27
 20
5020.00
 30
101.00
 70
32
  0
VERTEX
  8
C-TOPO-MINR
 10
1065.91
 20
5010.00
 30
101.00
 70
32
  0
VERTEX
  8
C-TOPO-MINR
 10
1065.70
 20
5000.00
 30
101.00
 70
32
  0
SEQEND
  8
C-TOPO-MINR
  0
POLYLINE
  8
C-TOPO-MINR
 66
1
 10
0.0
 20
0.0
 30
0.0
 70
8
  0
VERTEX
  8
C-TOPO-MINR
 10
1073.87
 20
5000.00
 30
102.00
 70
32
  0
VERTEX
  8
C-TOPO-MINR
 10
1073.80
 20
5010.00
 30
102.00
 70
32
  0
VERTEX
  8
C-TOPO-MINR
 10
1074.12
 20
5020.00
 30
102.00
 70
32
  0
VERTEX
  8
C-TOPO-MINR
 10
1073.78
 20
5030.00
 30
102.00
 70
32
  0
VERTEX
  8
C-TOPO-MINR
 10
1072.45
 20
5040.00
 30
102.00
 70
32
  0
VERTEX
  8
C-TOPO-MINR
 10
1070.29
 20
5050.00
 30
102.00
 70
32
  0
VERTEX
  8
C-TOPO-MINR
 10
1070.00
 20
5050.97
 30
102.00
 70
32
  0
VERTEX
  8
C-TOPO-MINR
 10
1067.25
 20
5050.00
 30
102.00
 70
32
  0
VERTEX
  8
C-TOPO-MINR
 10
1060.00
 20
5045.86
 30
102.00
 70
32
  0
VERTEX
  8
C-TOPO-MINR
 10
1058.54
 20
5040.00
 30
102.00
 70
32
  0
VERTEX
  8
C-TOPO-MINR
 10
1054.25
 20
5030.00
 30
102.00
 70
32
  0
VERTEX
  8
C-TOPO-MINR
 10
1050.00
 20
5022.99
 30
102.00
 70
32
  0
VERTEX
  8
C-TOPO-MINR
 10
1046.46
 20
5020.00
 30
102.00
 70
32
  0
VERTEX
  8
C-TOPO-MINR
 10
1040.00
 20
5013.66
 30
102.00
 70
32
  0
VERTEX
  8
C-TOPO-MINR
 10
1030.00
 20
5015.66
 30
102.00
 70
32
  0
VERTEX
  8
C-TOPO-MINR
 10
1025.30
 20
5020.00
 30
102.00
 70
32
  0
VERTEX
  8
C-TOPO-MINR
 10
1020.00
 20
5025.25
 30
102.00
 70
32
  0
VERTEX
  8
C-TOPO-MINR
 10
1015.40
 20
5030.00
 30
102.00
 70
32
  0
VERTEX
  8
C-TOPO-MINR
 10
1010.00
 20
5035.37
 30
102.00
 70
32
  0
VERTEX
  8
C-TOPO-MINR
 10
1005.10
 20
5040.00
 30
102.00
 70
32
  0
VERTEX
  8
C-TOPO-MINR
 10
1000.00
 20
5044.44
 30
102.00
 70
32
  0
SEQEND
  8
C-TOPO-MINR
  0
POLYLINE
  8
C-TOPO-MINR
 66
1
 10
0.0
 20
0.0
 30
0.0
 70
8
  0
VERTEX
  8
C-TOPO-MINR
 10
1148.29
 20
5000.00
 30
103.00
 70
32
  0
VERTEX
  8
C-TOPO-MINR
 10
1140.00
 20
5002.27
 30
103.00
 70
32
  0
VERTEX
  8
C-TOPO-MINR
 10
1130.00
 20
5003.98
 30
103.00
 70
32
  0
VERTEX
  8
C-TOPO-MINR
 10
1120.00
 20
5004.97
 30
103.00
 70
32
  0
VERTEX
  8
C-TOPO-MINR
 10
1110.00
 20
5005.58
 30
103.00
 70
32
  0
VERTEX
  8
C-TOPO-MINR
 10
1100.00
 20
5006.21
 30
103.00
 70
32
  0
VERTEX
  8
C-TOPO-MINR
 10
1090.00
 20
5007.61
 30
103.00
 70
32
  0
VERTEX
  8
C-TOPO-MINR
 10
1086.99
 20
5010.00
 30
103.00
 70
32
  0
VERTEX
  8
C-TOPO-MINR
 10
1081.90
 20
5020.00
 30
103.00
 70
32
  0
VERTEX
  8
C-TOPO-MINR
 10
1080.41
 20
5030.00
 30
103.00
 70
32
  0
VERTEX
  8
C-TOPO-MINR
 10
1080.00
 20
5031.97
 30
103.00
 70
32
  0
VERTEX
  8
C-TOPO-MINR
 10
1079.06
 20
5040.00
 30
103.00
 70
32
  0
VERTEX
  8
C-TOPO-MINR
 10
1076.76
 20
5050.00
 30
103.00
 70
32
  0
VERTEX
  8
C-TOPO-MINR
 10
1073.62
 20
5060.00
 30
103.00
 70
32
  0
VERTEX
  8
C-TOPO-MINR
 10
1070.00
 20
5068.79
 30
103.00
 70
32
  0
VERTEX
  8
C-TOPO-MINR
 10
1069.06
 20
5070.00
 30
103.00
 70
32
  0
VERTEX
  8
C-TOPO-MINR
 10
1063.58
 20
5080.00
 30
103.00
 70
32
  0
VERTEX
  8
C-TOPO-MINR
 10
1060.00
 20
5088.10
 30
103.00
 70
32
  0
VERTEX
  8
C-TOPO-MINR
 10
1057.22
 20
5090.00
 30
103.00
 70
32
  0
VERTEX
  8
C-TOPO-MINR
 10
1051.84
 20
5100.00
 30
103.00
 70
32
  0
VERTEX
  8
C-TOPO-MINR
 10
1050.00
 20
5104.85
 30
103.00
 70
32
  0
VERTEX
  8
C-TOPO-MINR
 10
1047.08
 20
5100.00
 30
103.00
 70
32
  0
VERTEX
  8
C-TOPO-MINR
 10
1047.24
 20
5090.00
 30
103.00
 70
32
  0
VERTEX
  8
C-TOPO-MINR
 10
1049.42
 20
5080.00
 30
103.00
 70
32
  0
VERTEX
  8
C-TOPO-MINR
 10
1050.00
 20
5077.95
 30
103.00
 70
32
  0
VERTEX
  8
C-TOPO-MINR
 10
1052.35
 20
5070.00
 30
103.00
 70
32
  0
VERTEX
  8
C-TOPO-MINR
 10
1053.06
 20
5060.00
 30
103.00
 70
32
  0
VERTEX
  8
C-TOPO-MINR
 10
1052.21
 20
5050.00
 30
103.00
 70
32
  0
VERTEX
  8
C-TOPO-MINR
 10
1050.00
 20
5041.23
 30
103.00
 70
32
  0
VERTEX
  8
C-TOPO-MINR
 10
1048.48
 20
5040.00
 30
103.00
 70
32
  0
VERTEX
  8
C-TOPO-MINR
 10
1040.00
 20
5034.61
 30
103.00
 70
32
  0
VERTEX
  8
C-TOPO-MINR
 10
1032.67
 20
5040.00
 30
103.00
 70
32
  0
VERTEX
  8
C-TOPO-MINR
 10
1030.00
 20
5042.11
 30
103.00
 70
32
  0
VERTEX
  8
C-TOPO-MINR
 10
1021.79
 20
5050.00
 30
103.00
 70
32
  0
VERTEX
  8
C-TOPO-MINR
 10
1020.00
 20
5051.61
 30
103.00
 70
32
  0
VERTEX
  8
C-TOPO-MINR
 10
1010.00
 20
5059.92
 30
103.00
 70
32
  0
VERTEX
  8
C-TOPO-MINR
 10
1009.90
 20
5060.00
 30
103.00
 70
32
  0
VERTEX
  8
C-TOPO-MINR
 10
1000.00
 20
5066.67
 30
103.00
 70
32
  0
SEQEND
  8
C-TOPO-MINR
  0
POLYLINE
  8
C-TOPO-MINR
 66
1
 10
0.0
 20
0.0
 30
0.0
 70
8
  0
VERTEX
  8
C-TOPO-MINR
 10
1186.08
 20
5000.00
 30
104.00
 70
32
  0
VERTEX
  8
C-TOPO-MINR
 10
1180.00
 20
5004.85
 30
104.00
 70
32
  0
VERTEX
  8
C-TOPO-MINR
 10
1172.31
 20
5010.00
 30
104.00
 70
32
  0
VERTEX
  8
C-TOPO-MINR
 10
1170.00
 20
5011.42
 30
104.00
 70
32
  0
VERTEX
  8
C-TOPO-MINR
 10
1160.00
 20
5016.36
 30
104.00
 70
32
  0
VERTEX
  8
C-TOPO-MINR
 10
1150.39
 20
5020.00
 30
104.00
 70
32
  0
VERTEX
  8
C-TOPO-MINR
 10
1150.00
 20
5020.14
 30
104.00
 70
32
  0
VERTEX
  8
C-TOPO-MINR
 10
1140.00
 20
5022.82
 30
104.00
 70
32
  0
VERTEX
  8
C-TOPO-MINR
 10
1130.00
 20
5024.82
 30
104.00
 70
32
  0
VERTEX
  8
C-TOPO-MINR
 10
1120.00
 20
5026.39
 30
104.00
 70
32
  0
VERTEX
  8
C-TOPO-MINR
 10
1110.00
 20
5027.80
 30
104.00
 70
32
  0
VERTEX
  8
C-TOPO-MINR
 10
1100.00
 20
5029.51
 30
104.00
 70
32
  0
VERTEX
  8
C-TOPO-MINR
 10
1098.97
 20
5030.00
 30
104.00
 70
32
  0
VERTEX
  8
C-TOPO-MINR
 10
1090.00
 20
5035.29
 30
104.00
 70
32
  0
VERTEX
  8
C-TOPO-MINR
 10
1088.44
 20
5040.00
 30
104.00
 70
32
  0
VERTEX
  8
C-TOPO-MINR
 10
1084.83
 20
5050.00
 30
104.00
 70
32
  0
VERTEX
  8
C-TOPO-MINR
 10
1080.00
 20
5059.29
 30
104.00
 70
32
  0
VERTEX
  8
C-TOPO-MINR
 10
1079.77
 20
5060.00
 30
104.00
 70
32
  0
VERTEX
  8
C-TOPO-MINR
 10
1075.80
 20
5070.00
 30
104.00
 70
32
  0
VERTEX
  8
C-TOPO-MINR
 10
1070.41
 20
5080.00
 30
104.00
 70
32
  0
VERTEX
  8
C-TOPO-MINR
 10
1070.00
 20
5080.62
 30
104.00
 70
32
  0
VERTEX
  8
C-TOPO-MINR
 10
1065.21
 20
5090.00
 30
104.00
 70
32
  0
VERTEX
  8
C-TOPO-MINR
 10
1060.00
 20
5099.79
 30
104.00
 70
32
  0
VERTEX
  8
C-TOPO-MINR
 10
1059.85
 20
5100.00
 30
104.00
 70
32
  0
VERTEX
  8
C-TOPO-MINR
 10
1054.69
 20
5110.00
 30
104.00
 70
32
  0
VERTEX
  8
C-TOPO-MINR
 10
1050.87
 20
5120.00
 30
104.00
 70
32
  0
VERTEX
  8
C-TOPO-MINR
 10
1050.00
 20
5122.74
 30
104.00
 70
32
  0
VERTEX
  8
C-TOPO-MINR
 10
1043.86
 20
5130.00
 30
104.00
 70
32
  0
VERTEX
  8
C-TOPO-MINR
 10
1040.00
 20
5135.18
 30
104.00
 70
32
  0
VERTEX
  8
C-TOPO-MINR
 10
1038.00
 20
5130.00
 30
104.00
 70
32
  0
VERTEX
  8
C-TOPO-MINR
 10
1035.63
 20
5120.00
 30
104.00
 70
32
  0
VERTEX
  8
C-TOPO-MINR
 10
1034.96
 20
5110.00
 30
104.00
 70
32
  0
VERTEX
  8
C-TOPO-MINR
 10
1035.58
 20
5100.00
 30
104.00
 70
32
  0
VERTEX
  8
C-TOPO-MINR
 10
1037.29
 20
5090.00
 30
104.00
 70
32
  0
VERTEX
  8
C-TOPO-MINR
 10
1040.00
 20
5080.21
 30
104.00
 70
32
  0
VERTEX
  8
C-TOPO-MINR
 10
1040.03
 20
5080.00
 30
104.00
 70
32
  0
VERTEX
  8
C-TOPO-MINR
 10
1040.00
 20
5079.27
 30
104.00
 70
32
  0
VERTEX
  8
C-TOPO-MINR
 10
1030.00
 20
5073.59
 30
104.00
 70
32
  0
VERTEX
  8
C-TOPO-MINR
 10
1020.00
 20
5079.73
 30
104.00
 70
32
  0
VERTEX
  8
C-TOPO-MINR
 10
1019.53
 20
5080.00
 30
104.00
 70
32
  0
VERTEX
  8
C-TOPO-MINR
 10
1010.00
 20
5084.88
 30
104.00
 70
32
  0
VERTEX
  8
C-TOPO-MINR
 10
1000.00
 20
5088.89
 30
104.00
 70
32
  0
SEQEND
  8
C-TOPO-MINR
  0
POLYLINE
  8
C-TOPO-MAJR
 66
1
 10
0.0
 20
0.0
 30
0.0
 70
8
  0
VERTEX
  8
C-TOPO-MAJR
 10
1209.42
 20
5000.00
 30
105.00
 70
32
  0
VERTEX
  8
C-TOPO-MAJR
 10
1200.00
 20
5009.36
 30
105.00
 70
32
  0
VERTEX
  8
C-TOPO-MAJR
 10
1199.29
 20
5010.00
 30
105.00
 70
32
  0
VERTEX
  8
C-TOPO-MAJR
 10
1190.00
 20
5017.87
 30
105.00
 70
32
  0
VERTEX
  8
C-TOPO-MAJR
 10
1187.09
 20
5020.00
 30
105.00
 70
32
  0
VERTEX
  8
C-TOPO-MAJR
 10
1180.00
 20
5024.79
 30
105.00
 70
32
  0
VERTEX
  8
C-TOPO-MAJR
 10
1170.74
 20
5030.00
 30
105.00
 70
32
  0
VERTEX
  8
C-TOPO-MAJR
 10
1170.00
 20
5030.39
 30
105.00
 70
32
  0
VERTEX
  8
C-TOPO-MAJR
 10
1160.00
 20
5034.75
 30
105.00
 70
32
  0
VERTEX
  8
C-TOPO-MAJR
 10
1150.00
 20
5038.38
 30
105.00
 70
32
  0
VERTEX
  8
C-TOPO-MAJR
 10
1144.73
 20
5040.00
 30
105.00
 70
32
  0
VERTEX
  8
C-TOPO-MAJR
 10
1140.00
 20
5041.45
 30
105.00
 70
32
  0
VERTEX
  8
C-TOPO-MAJR
 10
1130.00
 20
5044.20
 30
105.00
 70
32
  0
VERTEX
  8
C-TOPO-MAJR
 10
1120.00
 20
5046.96
 30
105.00
 70
32
  0
VERTEX
  8
C-TOPO-MAJR
 10
1110.04
 20
5050.00
 30
105.00
 70
32
  0
VERTEX
  8
C-TOPO-MAJR
 10
1110.00
 20
5050.01
 30
105.00
 70
32
  0
VERTEX
  8
C-TOPO-MAJR
 10
1100.00
 20
5053.91
 30
105.00
 70
32
  0
VERTEX
  8
C-TOPO-MAJR
 10
1091.79
 20
5060.00
 30
105.00
 70
32
  0
VERTEX
  8
C-TOPO-MAJR
 10
1090.00
 20
5061.31
 30
105.00
 70
32
  0
VERTEX
  8
C-TOPO-MAJR
 10
1084.84
 20
5070.00
 30
105.00
 70
32
  0
VERTEX
  8
C-TOPO-MAJR
 10
1080.00
 20
5075.77
 30
105.00
 70
32
  0
VERTEX
  8
C-TOPO-MAJR
 10
1078.10
 20
5080.00
 30
105.00
 70
32
  0
VERTEX
  8
C-TOPO-MAJR
 10
1072.13
 20
5090.00
 30
105.00
 70
32
  0
VERTEX
  8
C-TOPO-MAJR
 10
1070.00
 20
5092.86
 30
105.00
 70
32
  0
VERTEX
  8
C-TOPO-MAJR
 10
1066.70
 20
5100.00
 30
105.00
 70
32
  0
VERTEX
  8
C-TOPO-MAJR
 10
1061.26
 20
5110.00
 30
105.00
 70
32
  0
VERTEX
  8
C-TOPO-MAJR
 10
1060.00
 20
5112.20
 30
105.00
 70
32
  0
VERTEX
  8
C-TOPO-MAJR
 10
1056.92
 20
5120.00
 30
105.00
 70
32
  0
VERTEX
  8
C-TOPO-MAJR
 10
1053.80
 20
5130.00
 30
105.00
 70
32
  0
VERTEX
  8
C-TOPO-MAJR
 10
1051.56
 20
5140.00
 30
105.00
 70
32
  0
VERTEX
  8
C-TOPO-MAJR
 10
1050.14
 20
5150.00
 30
105.00
 70
32
  0
VERTEX
  8
C-TOPO-MAJR
 10
1050.00
 20
5150.82
 30
105.00
 70
32
  0
VERTEX
  8
C-TOPO-MAJR
 10
1040.00
 20
5151.27
 30
105.00
 70
32
  0
VERTEX
  8
C-TOPO-MAJR
 10
1039.08
 20
5150.00
 30
105.00
 70
32
  0
VERTEX
  8
C-TOPO-MAJR
 10
1033.71
 20
5140.00
 30
105.00
 70
32
  0
VERTEX
  8
C-TOPO-MAJR
 10
1030.00
 20
5130.75
 30
105.00
 70
32
  0
VERTEX
  8
C-TOPO-MAJR
 10
1029.54
 20
5130.00
 30
105.00
 70
32
  0
VERTEX
  8
C-TOPO-MAJR
 10
1025.64
 20
5120.00
 30
105.00
 70
32
  0
VERTEX
  8
C-TOPO-MAJR
 10
1021.12
 20
5110.00
 30
105.00
 70
32
  0
VERTEX
  8
C-TOPO-MAJR
 10
1020.00
 20
5108.55
 30
105.00
 70
32
  0
VERTEX
  8
C-TOPO-MAJR
 10
1010.00
 20
5109.41
 30
105.00
 70
32
  0
VERTEX
  8
C-TOPO-MAJR
 10
1006.73
 20
5110.00
 30
105.00
 70
32
  0
VERTEX
  8
C-TOPO-MAJR
 10
1000.00
 20
5111.11
 30
105.00
 70
32
  0
SEQEND
  8
C-TOPO-MAJR
  0
POLYLINE
  8
C-TOPO-MINR
 66
1
 10
0.0
 20
0.0
 30
0.0
 70
8
  0
VERTEX
  8
C-TOPO-MINR
 10
1230.49
 20
5000.00
 30
106.00
 70
32
  0
VERTEX
  8
C-TOPO-MINR
 10
1230.00
 20
5000.51
 30
106.00
 70
32
  0
VERTEX
  8
C-TOPO-MINR
 10
1221.02
 20
5010.00
 30
106.00
 70
32
  0
VERTEX
  8
C-TOPO-MINR
 10
1220.00
 20
5011.07
 30
106.00
 70
32
  0
VERTEX
  8
C-TOPO-MINR
 10
1211.14
 20
5020.00
 30
106.00
 70
32
  0
VERTEX
  8
C-TOPO-MINR
 10
1210.00
 20
5021.09
 30
106.00
 70
32
  0
VERTEX
  8
C-TOPO-MINR
 10
1200.00
 20
5029.77
 30
106.00
 70
32
  0
VERTEX
  8
C-TOPO-MINR
 10
1199.71
 20
5030.00
 30
106.00
 70
32
  0
VERTEX
  8
C-TOPO-MINR
 10
1190.00
 20
5036.88
 30
106.00
 70
32
  0
VERTEX
  8
C-TOPO-MINR
 10
1184.83
 20
5040.00
 30
106.00
 70
32
  0
VERTEX
  8
C-TOPO-MINR
 10
1180.00
 20
5042.70
 30
106.00
 70
32
  0
VERTEX
  8
C-TOPO-MINR
 10
1170.00
 20
5047.51
 30
106.00
 70
32
  0
VERTEX
  8
C-TOPO-MINR
 10
1164.05
 20
5050.00
 30
106.00
 70
32
  0
VERTEX
  8
C-TOPO-MINR
 10
1160.00
 20
5051.65
 30
106.00
 70
32
  0
VERTEX
  8
C-TOPO-MINR
 10
1150.00
 20
5055.37
 30
106.00
 70
32
  0
VERTEX
  8
C-TOPO-MINR
 10
1140.00
 20
5059.00
 30
106.00
 70
32
  0
VERTEX
  8
C-TOPO-MINR
 10
1137.25
 20
5060.00
 30
106.00
 70
32
  0
VERTEX
  8
C-TOPO-MINR
 10
1130.00
 20
5062.79
 30
106.00
 70
32
  0
VERTEX
  8
C-TOPO-MINR
 10
1120.00
 20
5067.07
 30
106.00
 70
32
  0
VERTEX
  8
C-TOPO-MINR
 10
1114.06
 20
5070.00
 30
106.00
 70
32
  0
VERTEX
  8
C-TOPO-MINR
 10
1110.00
 20
5072.22
 30
106.00
 70
32
  0
VERTEX
  8
C-TOPO-MINR
 10
1100.00
 20
5078.67
 30
106.00
 70
32
  0
VERTEX
  8
C-TOPO-MINR
 10
1098.26
 20
5080.00
 30
106.00
 70
32
  0
VERTEX
  8
C-TOPO-MINR
 10
1090.00
 20
5086.85
 30
106.00
 70
32
  0
VERTEX
  8
C-TOPO-MINR
 10
1087.08
 20
5090.00
 30
106.00
 70
32
  0
VERTEX
  8
C-TOPO-MINR
 10
1080.00
 20
5097.24
 30
106.00
 70
32
  0
VERTEX
  8
C-TOPO-MINR
 10
1078.26
 20
5100.00
 30
106.00
 70
32
  0
VERTEX
  8
C-TOPO-MINR
 10
1070.15
 20
5110.00
 30
106.00
 70
32
  0
VERTEX
  8
C-TOPO-MINR
 10
1070.00
 20
5110.17
 30
106.00
 70
32
  0
VERTEX
  8
C-TOPO-MINR
 10
1065.37
 20
5120.00
 30
106.00
 70
32
  0
VERTEX
  8
C-TOPO-MINR
 10
1060.00
 20
5129.83
 30
106.00
 70
32
  0
VERTEX
  8
C-TOPO-MINR
 10
1059.95
 20
5130.00
 30
106.00
 70
32
  0
VERTEX
  8
C-TOPO-MINR
 10
1057.65
 20
5140.00
 30
106.00
 70
32
  0
VERTEX
  8
C-TOPO-MINR
 10
1056.19
 20
5150.00
 30
106.00
 70
32
  0
VERTEX
  8
C-TOPO-MINR
 10
1055.18
 20
5160.00
 30
106.00
 70
32
  0
VERTEX
  8
C-TOPO-MINR
 10
1052.00
 20
5170.00
 30
106.00
 70
32
  0
VERTEX
  8
C-TOPO-MINR
 10
1050.00
 20
5171.58
 30
106.00
 70
32
  0
VERTEX
  8
C-TOPO-MINR
 10
1048.54
 20
5170.00
 30
106.00
 70
32
  0
VERTEX
  8
C-TOPO-MINR
 10
1040.00
 20
5161.69
 30
106.00
 70
32
  0
VERTEX
  8
C-TOPO-MINR
 10
1038.35
 20
5160.00
 30
106.00
 70
32
  0
VERTEX
  8
C-TOPO-MINR
 10
1031.26
 20
5150.00
 30
106.00
 70
32
  0
VERTEX
  8
C-TOPO-MINR
 10
1030.00
 20
5147.70
 30
106.00
 70
32
  0
VERTEX
  8
C-TOPO-MINR
 10
1022.87
 20
5140.00
 30
106.00
 70
32
  0
VERTEX
  8
C-TOPO-MINR
 10
1020.00
 20
5135.20
 30
106.00
 70
32
  0
VERTEX
  8
C-TOPO-MINR
 10
1010.00
 20
5132.88
 30
106.00
 70
32
  0
VERTEX
  8
C-TOPO-MINR
 10
1000.00
 20
5133.34
 30
106.00
 70
32
  0
SEQEND
  8
C-TOPO-MINR
  0
POLYLINE
  8
C-TOPO-MINR
 66
1
 10
0.0
 20
0.0
 30
0.0
 70
8
  0
VERTEX
  8
C-TOPO-MINR
 10
1048.72
 20
5180.00
 30
107.00
 70
32
  0
VERTEX
  8
C-TOPO-MINR
 10
1040.00
 20
5170.60
 30
107.00
 70
32
  0
VERTEX
  8
C-TOPO-MINR
 10
1039.17
 20
5170.00
 30
107.00
 70
32
  0
VERTEX
  8
C-TOPO-MINR
 10
1030.00
 20
5160.48
 30
107.00
 70
32
  0
VERTEX
  8
C-TOPO-MINR
 10
1028.78
 20
5160.00
 30
107.00
 70
32
  0
VERTEX
  8
C-TOPO-MINR
 10
1020.00
 20
5155.03
 30
107.00
 70
32
  0
VERTEX
  8
C-TOPO-MINR
 10
1010.00
 20
5154.82
 30
107.00
 70
32
  0
VERTEX
  8
C-TOPO-MINR
 10
1000.00
 20
5155.56
 30
107.00
 70
32
  0
SEQEND
  8
C-TOPO-MINR
  0
POLYLINE
  8
C-TOPO-MINR
 66
1
 10
0.0
 20
0.0
 30
0.0
 70
8
  0
VERTEX
  8
C-TOPO-MINR
 10
1240.00
 20
5013.02
 30
107.00
 70
32
  0
VERTEX
  8
C-TOPO-MINR
 10
1233.31
 20
5020.00
 30
107.00
 70
32
  0
VERTEX
  8
C-TOPO-MINR
 10
1230.00
 20
5023.42
 30
107.00
 70
32
  0
VERTEX
  8
C-TOPO-MINR
 10
1223.47
 20
5030.00
 30
107.00
 70
32
  0
VERTEX
  8
C-TOPO-MINR
 10
1220.00
 20
5033.30
 30
107.00
 70
32
  0
VERTEX
  8
C-TOPO-MINR
 10
1212.32
 20
5040.00
 30
107.00
 70
32
  0
VERTEX
  8
C-TOPO-MINR
 10
1210.00
 20
5041.85
 30
107.00
 70
32
  0
VERTEX
  8
C-TOPO-MINR
 10
1200.00
 20
5048.89
 30
107.00
 70
32
  0
VERTEX
  8
C-TOPO-MINR
 10
1198.20
 20
5050.00
 30
107.00
 70
32
  0
VERTEX
  8
C-TOPO-MINR
 10
1190.00
 20
5054.65
 30
107.00
 70
32
  0
VERTEX
  8
C-TOPO-MINR
 10
1180.00
 20
5059.52
 30
107.00
 70
32
  0
VERTEX
  8
C-TOPO-MINR
 10
1178.91
 20
5060.00
 30
107.00
 70
32
  0
VERTEX
  8
C-TOPO-MINR
 10
1170.00
 20
5063.78
 30
107.00
 70
32
  0
VERTEX
  8
C-TOPO-MINR
 10
1160.00
 20
5067.79
 30
107.00
 70
32
  0
VERTEX
  8
C-TOPO-MINR
 10
1154.46
 20
5070.00
 30
107.00
 70
32
  0
VERTEX
  8
C-TOPO-MINR
 10
1150.00
 20
5071.82
 30
107.00
 70
32
  0
VERTEX
  8
C-TOPO-MINR
 10
1140.00
 20
5076.15
 30
107.00
 70
32
  0
VERTEX
  8
C-TOPO-MINR
 10
1132.13
 20
5080.00
 30
107.00
 70
32
  0
VERTEX
  8
C-TOPO-MINR
 10
1130.00
 20
5081.13
 30
107.00
 70
32
  0
VERTEX
  8
C-TOPO-MINR
 10
1120.00
 20
5087.10
 30
107.00
 70
32
  0
VERTEX
  8
C-TOPO-MINR
 10
1115.80
 20
5090.00
 30
107.00
 70
32
  0
VERTEX
  8
C-TOPO-MINR
 10
1110.00
 20
5094.43
 30
107.00
 70
32
  0
VERTEX
  8
C-TOPO-MINR
 10
1103.52
 20
5100.00
 30
107.00
 70
32
  0
VERTEX
  8
C-TOPO-MINR
 10
1100.00
 20
5103.29
 30
107.00
 70
32
  0
VERTEX
  8
C-TOPO-MINR
 10
1093.21
 20
5110.00
 30
107.00
 70
32
  0
VERTEX
  8
C-TOPO-MINR
 10
1090.00
 20
5113.30
 30
107.00
 70
32
  0
VERTEX
  8
C-TOPO-MINR
 10
1083.46
 20
5120.00
 30
107.00
 70
32
  0
VERTEX
  8
C-TOPO-MINR
 10
1080.00
 20
5123.49
 30
107.00
 70
32
  0
VERTEX
  8
C-TOPO-MINR
 10
1073.86
 20
5130.00
 30
107.00
 70
32
  0
VERTEX
  8
C-TOPO-MINR
 10
1070.00
 20
5133.95
 30
107.00
 70
32
  0
VERTEX
  8
C-TOPO-MINR
 10
1067.08
 20
5140.00
 30
107.00
 70
32
  0
VERTEX
  8
C-TOPO-MINR
 10
1063.56
 20
5150.00
 30
107.00
 70
32
  0
VERTEX
  8
C-TOPO-MINR
 10
1062.25
 20
5160.00
 30
107.00
 70
32
  0
VERTEX
  8
C-TOPO-MINR
 10
1062.18
 20
5170.00
 30
107.00
 70
32
  0
VERTEX
  8
C-TOPO-MINR
 10
1061.74
 20
5180.00
 30
107.00
 70
32
  0
SEQEND
  8
C-TOPO-MINR
  0
POLYLINE
  8
C-TOPO-MINR
 66
1
 10
0.0
 20
0.0
 30
0.0
 70
8
  0
VERTEX
  8
C-TOPO-MINR
 10
1040.22
 20
5180.00
 30
108.00
 70
32
  0
VERTEX
  8
C-TOPO-MINR
 10
1040.00
 20
5179.76
 30
108.00
 70
32
  0
VERTEX
  8
C-TOPO-MINR
 10
1030.00
 20
5174.15
 30
108.00
 70
32
  0
VERTEX
  8
C-TOPO-MINR
 10
1020.00
 20
5174.00
 30
108.00
 70
32
  0
VERTEX
  8
C-TOPO-MINR
 10
1010.00
 20
5175.82
 30
108.00
 70
32
  0
VERTEX
  8
C-TOPO-MINR
 10
1000.00
 20
5177.78
 30
108.00
 70
32
  0
SEQEND
  8
C-TOPO-MINR
  0
POLYLINE
  8
C-TOPO-MINR
 66
1
 10
0.0
 20
0.0
 30
0.0
 70
8
  0
VERTEX
  8
C-TOPO-MINR
 10
1240.00
 20
5038.07
 30
108.00
 70
32
  0
VERTEX
  8
C-TOPO-MINR
 10
1238.06
 20
5040.00
 30
108.00
 70
32
  0
VERTEX
  8
C-TOPO-MINR
 10
1230.00
 20
5047.52
 30
108.00
 70
32
  0
VERTEX
  8
C-TOPO-MINR
 10
1227.12
 20
5050.00
 30
108.00
 70
32
  0
VERTEX
  8
C-TOPO-MINR
 10
1220.00
 20
5055.54
 30
108.00
 70
32
  0
VERTEX
  8
C-TOPO-MINR
 10
1213.38
 20
5060.00
 30
108.00
 70
32
  0
VERTEX
  8
C-TOPO-MINR
 10
1210.00
 20
5062.06
 30
108.00
 70
32
  0
VERTEX
  8
C-TOPO-MINR
 10
1200.00
 20
5067.37
 30
108.00
 70
32
  0
VERTEX
  8
C-TOPO-MINR
 10
1194.32
 20
5070.00
 30
108.00
 70
32
  0
VERTEX
  8
C-TOPO-MINR
 10
1190.00
 20
5071.87
 30
108.00
 70
32
  0
VERTEX
  8
C-TOPO-MINR
 10
1180.00
 20
5075.91
 30
108.00
 70
32
  0
VERTEX
  8
C-TOPO-MINR
 10
1170.00
 20
5079.80
 30
108.00
 70
32
  0
VERTEX
  8
C-TOPO-MINR
 10
1169.49
 20
5080.00
 30
108.00
 70
32
  0
VERTEX
  8
C-TOPO-MINR
 10
1160.00
 20
5083.85
 30
108.00
 70
32
  0
VERTEX
  8
C-TOPO-MINR
 10
1150.00
 20
5088.29
 30
108.00
 70
32
  0
VERTEX
  8
C-TOPO-MINR
 10
1146.58
 20
5090.00
 30
108.00
 70
32
  0
VERTEX
  8
C-TOPO-MINR
 10
1140.00
 20
5093.50
 30
108.00
 70
32
  0
VERTEX
  8
C-TOPO-MINR
 10
1130.00
 20
5099.76
 30
108.00
 70
32
  0
VERTEX
  8
C-TOPO-MINR
 10
1129.66
 20
5100.00
 30
108.00
 70
32
  0
VERTEX
  8
C-TOPO-MINR
 10
1120.00
 20
5107.46
 30
108.00
 70
32
  0
VERTEX
  8
C-TOPO-MINR
 10
1117.08
 20
5110.00
 30
108.00
 70
32
  0
VERTEX
  8
C-TOPO-MINR
 10
1110.00
 20
5116.65
 30
108.00
 70
32
  0
VERTEX
  8
C-TOPO-MINR
 10
1106.65
 20
5120.00
 30
108.00
 70
32
  0
VERTEX
  8
C-TOPO-MINR
 10
1100.00
 20
5126.93
 30
108.00
 70
32
  0
VERTEX
  8
C-TOPO-MINR
 10
1097.06
 20
5130.00
 30
108.00
 70
32
  0
VERTEX
  8
C-TOPO-MINR
 10
1090.00
 20
5137.29
 30
108.00
 70
32
  0
VERTEX
  8
C-TOPO-MINR
 10
1087.22
 20
5140.00
 30
108.00
 70
32
  0
VERTEX
  8
C-TOPO-MINR
 10
1080.00
 20
5146.69
 30
108.00
 70
32
  0
VERTEX
  8
C-TOPO-MINR
 10
1076.84
 20
5150.00
 30
108.00
 70
32
  0
VERTEX
  8
C-TOPO-MINR
 10
1070.00
 20
5158.78
 30
108.00
 70
32
  0
VERTEX
  8
C-TOPO-MINR
 10
1069.66
 20
5160.00
 30
108.00
 70
32
  0
VERTEX
  8
C-TOPO-MINR
 10
1068.23
 20
5170.00
 30
108.00
 70
32
  0
VERTEX
  8
C-TOPO-MINR
 10
1067.83
 20
5180.00
 30
108.00
 70
32
  0
SEQEND
  8
C-TOPO-MINR
  0
POLYLINE
  8
C-TOPO-MINR
 66
1
 10
0.0
 20
0.0
 30
0.0
 70
8
  0
VERTEX
  8
C-TOPO-MINR
 10
1240.00
 20
5065.58
 30
109.00
 70
32
  0
VERTEX
  8
C-TOPO-MINR
 10
1233.81
 20
5070.00
 30
109.00
 70
32
  0
VERTEX
  8
C-TOPO-MINR
 10
1230.00
 20
5072.41
 30
109.00
 70
32
  0
VERTEX
  8
C-TOPO-MINR
 10
1220.00
 20
5077.78
 30
109.00
 70
32
  0
VERTEX
  8
C-TOPO-MINR
 10
1215.11
 20
5080.00
 30
109.00
 70
32
  0
VERTEX
  8
C-TOPO-MINR
 10
1210.00
 20
5082.09
 30
109.00
 70
32
  0
VERTEX
  8
C-TOPO-MINR
 10
1200.00
 20
5085.76
 30
109.00
 70
32
  0
VERTEX
  8
C-TOPO-MINR
 10
1190.00
 20
5089.11
 30
109.00
 70
32
  0
VERTEX
  8
C-TOPO-MINR
 10
1187.43
 20
5090.00
 30
109.00
 70
32
  0
VERTEX
  8
C-TOPO-MINR
 10
1180.00
 20
5092.51
 30
109.00
 70
32
  0
VERTEX
  8
C-TOPO-MINR
 10
1170.00
 20
5096.17
 30
109.00
 70
32
  0
VERTEX
  8
C-TOPO-MINR
 10
1160.79
 20
5100.00
 30
109.00
 70
32
  0
VERTEX
  8
C-TOPO-MINR
 10
1160.00
 20
5100.34
 30
109.00
 70
32
  0
VERTEX
  8
C-TOPO-MINR
 10
1150.00
 20
5105.44
 30
109.00
 70
32
  0
VERTEX
  8
C-TOPO-MINR
 10
1142.49
 20
5110.00
 30
109.00
 70
32
  0
VERTEX
  8
C-TOPO-MINR
 10
1140.00
 20
5111.64
 30
109.00
 70
32
  0
VERTEX
  8
C-TOPO-MINR
 10
1130.00
 20
5119.29
 30
109.00
 70
32
  0
VERTEX
  8
C-TOPO-MINR
 10
1129.18
 20
5120.00
 30
109.00
 70
32
  0
VERTEX
  8
C-TOPO-MINR
 10
1120.00
 20
5128.52
 30
109.00
 70
32
  0
VERTEX
  8
C-TOPO-MINR
 10
1118.52
 20
5130.00
 30
109.00
 70
32
  0
VERTEX
  8
C-TOPO-MINR
 10
1110.00
 20
5138.87
 30
109.00
 70
32
  0
VERTEX
  8
C-TOPO-MINR
 10
1108.93
 20
5140.00
 30
109.00
 70
32
  0
VERTEX
  8
C-TOPO-MINR
 10
1100.00
 20
5149.35
 30
109.00
 70
32
  0
VERTEX
  8
C-TOPO-MINR
 10
1099.35
 20
5150.00
 30
109.00
 70
32
  0
VERTEX
  8
C-TOPO-MINR
 10
1090.00
 20
5158.87
 30
109.00
 70
32
  0
VERTEX
  8
C-TOPO-MINR
 10
1088.72
 20
5160.00
 30
109.00
 70
32
  0
VERTEX
  8
C-TOPO-MINR
 10
1080.00
 20
5167.68
 30
109.00
 70
32
  0
VERTEX
  8
C-TOPO-MINR
 10
1078.64
 20
5170.00
 30
109.00
 70
32
  0
VERTEX
  8
C-TOPO-MINR
 10
1075.41
 20
5180.00
 30
109.00
 70
32
  0
SEQEND
  8
C-TOPO-MINR
  0
POLYLINE
  8
C-TOPO-MAJR
 66
1
 10
0.0
 20
0.0
 30
0.0
 70
8
  0
VERTEX
  8
C-TOPO-MAJR
 10
1240.00
 20
5093.56
 30
110.00
 70
32
  0
VERTEX
  8
C-TOPO-MAJR
 10
1230.00
 20
5097.24
 30
110.00
 70
32
  0
VERTEX
  8
C-TOPO-MAJR
 10
1220.11
 20
5100.00
 30
110.00
 70
32
  0
VERTEX
  8
C-TOPO-MAJR
 10
1220.00
 20
5100.03
 30
110.00
 70
32
  0
VERTEX
  8
C-TOPO-MAJR
 10
1210.00
 20
5102.36
 30
110.00
 70
32
  0
VERTEX
  8
C-TOPO-MAJR
 10
1200.00
 20
5104.60
 30
110.00
 70
32
  0
VERTEX
  8
C-TOPO-MAJR
 10
1190.00
 20
5107.03
 30
110.00
 70
32
  0
VERTEX
  8
C-TOPO-MAJR
 10
1180.00
 20
5109.87
 30
110.00
 70
32
  0
VERTEX
  8
C-TOPO-MAJR
 10
1179.63
 20
5110.00
 30
110.00
 70
32
  0
VERTEX
  8
C-TOPO-MAJR
 10
1170.00
 20
5113.53
 30
110.00
 70
32
  0
VERTEX
  8
C-TOPO-MAJR
 10
1160.00
 20
5118.09
 30
110.00
 70
32
  0
VERTEX
  8
C-TOPO-MAJR
 10
1156.60
 20
5120.00
 30
110.00
 70
32
  0
VERTEX
  8
C-TOPO-MAJR
 10
1150.00
 20
5123.99
 30
110.00
 70
32
  0
VERTEX
  8
C-TOPO-MAJR
 10
1141.73
 20
5130.00
 30
110.00
 70
32
  0
VERTEX
  8
C-TOPO-MAJR
 10
1140.00
 20
5131.36
 30
110.00
 70
32
  0
VERTEX
  8
C-TOPO-MAJR
 10
1130.40
 20
5140.00
 30
110.00
 70
32
  0
VERTEX
  8
C-TOPO-MAJR
 10
1130.00
 20
5140.38
 30
110.00
 70
32
  0
VERTEX
  8
C-TOPO-MAJR
 10
1120.61
 20
5150.00
 30
110.00
 70
32
  0
VERTEX
  8
C-TOPO-MAJR
 10
1120.00
 20
5150.64
 30
110.00
 70
32
  0
VERTEX
  8
C-TOPO-MAJR
 10
1111.08
 20
5160.00
 30
110.00
 70
32
  0
VERTEX
  8
C-TOPO-MAJR
 10
1110.00
 20
5161.09
 30
110.00
 70
32
  0
VERTEX
  8
C-TOPO-MAJR
 10
1100.71
 20
5170.00
 30
110.00
 70
32
  0
VERTEX
  8
C-TOPO-MAJR
 10
1100.00
 20
5170.63
 30
110.00
 70
32
  0
VERTEX
  8
C-TOPO-MAJR
 10
1090.00
 20
5178.84
 30
110.00
 70
32
  0
VERTEX
  8
C-TOPO-MAJR
 10
1088.85
 20
5180.00
 30
110.00
 70
32
  0
SEQEND
  8
C-TOPO-MAJR
  0
POLYLINE
  8
C-TOPO-MINR
 66
1
 10
0.0
 20
0.0
 30
0.0
 70
8
  0
VERTEX
  8
C-TOPO-MINR
 10
1240.00
 20
5119.65
 30
111.00
 70
32
  0
VERTEX
  8
C-TOPO-MINR
 10
1237.92
 20
5120.00
 30
111.00
 70
32
  0
VERTEX
  8
C-TOPO-MINR
 10
1230.00
 20
5121.21
 30
111.00
 70
32
  0
VERTEX
  8
C-TOPO-MINR
 10
1220.00
 20
5122.26
 30
111.00
 70
32
  0
VERTEX
  8
C-TOPO-MINR
 10
1210.00
 20
5123.23
 30
111.00
 70
32
  0
VERTEX
  8
C-TOPO-MINR
 10
1200.00
 20
5124.48
 30
111.00
 70
32
  0
VERTEX
  8
C-TOPO-MINR
 10
1190.00
 20
5126.30
 30
111.00
 70
32
  0
VERTEX
  8
C-TOPO-MINR
 10
1180.00
 20
5128.94
 30
111.00
 70
32
  0
VERTEX
  8
C-TOPO-MINR
 10
1177.12
 20
5130.00
 30
111.00
 70
32
  0
VERTEX
  8
C-TOPO-MINR
 10
1170.00
 20
5132.81
 30
111.00
 70
32
  0
VERTEX
  8
C-TOPO-MINR
 10
1160.00
 20
5138.07
 30
111.00
 70
32
  0
VERTEX
  8
C-TOPO-MINR
 10
1157.08
 20
5140.00
 30
111.00
 70
32
  0
VERTEX
  8
C-TOPO-MINR
 10
1150.00
 20
5145.08
 30
111.00
 70
32
  0
VERTEX
  8
C-TOPO-MINR
 10
1144.20
 20
5150.00
 30
111.00
 70
32
  0
VERTEX
  8
C-TOPO-MINR
 10
1140.00
 20
5153.80
 30
111.00
 70
32
  0
VERTEX
  8
C-TOPO-MINR
 10
1133.76
 20
5160.00
 30
111.00
 70
32
  0
VERTEX
  8
C-TOPO-MINR
 10
1130.00
 20
5163.81
 30
111.00
 70
32
  0
VERTEX
  8
C-TOPO-MINR
 10
1124.03
 20
5170.00
 30
111.00
 70
32
  0
VERTEX
  8
C-TOPO-MINR
 10
1120.00
 20
5174.04
 30
111.00
 70
32
  0
VERTEX
  8
C-TOPO-MINR
 10
1113.76
 20
5180.00
 30
111.00
 70
32
  0
SEQEND
  8
C-TOPO-MINR
  0
POLYLINE
  8
C-TOPO-MINR
 66
1
 10
0.0
 20
0.0
 30
0.0
 70
8
  0
VERTEX
  8
C-TOPO-MINR
 10
1240.00
 20
5142.93
 30
112.00
 70
32
  0
VERTEX
  8
C-TOPO-MINR
 10
1230.00
 20
5143.90
 30
112.00
 70
32
  0
VERTEX
  8
C-TOPO-MINR
 10
1220.00
 20
5144.49
 30
112.00
 70
32
  0
VERTEX
  8
C-TOPO-MINR
 10
1210.00
 20
5145.08
 30
112.00
 70
32
  0
VERTEX
  8
C-TOPO-MINR
 10
1200.00
 20
5146.09
 30
112.00
 70
32
  0
VERTEX
  8
C-TOPO-MINR
 10
1190.00
 20
5147.90
 30
112.00
 70
32
  0
VERTEX
  8
C-TOPO-MINR
 10
1182.82
 20
5150.00
 30
112.00
 70
32
  0
VERTEX
  8
C-TOPO-MINR
 10
1180.00
 20
5150.90
 30
112.00
 70
32
  0
VERTEX
  8
C-TOPO-MINR
 10
1170.00
 20
5155.60
 30
112.00
 70
32
  0
VERTEX
  8
C-TOPO-MINR
 10
1163.00
 20
5160.00
 30
112.00
 70
32
  0
VERTEX
  8
C-TOPO-MINR
 10
1160.00
 20
5162.07
 30
112.00
 70
32
  0
VERTEX
  8
C-TOPO-MINR
 10
1150.47
 20
5170.00
 30
112.00
 70
32
  0
VERTEX
  8
C-TOPO-MINR
 10
1150.00
 20
5170.42
 30
112.00
 70
32
  0
VERTEX
  8
C-TOPO-MINR
 10
1140.13
 20
5180.00
 30
112.00
 70
32
  0
SEQEND
  8
C-TOPO-MINR
  0
POLYLINE
  8
C-TOPO-MINR
 66
1
 10
0.0
 20
0.0
 30
0.0
 70
8
  0
VERTEX
  8
C-TOPO-MINR
 10
1240.00
 20
5163.97
 30
113.00
 70
32
  0
VERTEX
  8
C-TOPO-MINR
 10
1230.00
 20
5165.43
 30
113.00
 70
32
  0
VERTEX
  8
C-TOPO-MINR
 10
1220.00
 20
5166.70
 30
113.00
 70
32
  0
VERTEX
  8
C-TOPO-MINR
 10
1210.00
 20
5168.12
 30
113.00
 70
32
  0
VERTEX
  8
C-TOPO-MINR
 10
1200.40
 20
5170.00
 30
113.00
 70
32
  0
VERTEX
  8
C-TOPO-MINR
 10
1200.00
 20
5170.09
 30
113.00
 70
32
  0
VERTEX
  8
C-TOPO-MINR
 10
1190.00
 20
5173.19
 30
113.00
 70
32
  0
VERTEX
  8
C-TOPO-MINR
 10
1180.00
 20
5177.79
 30
113.00
 70
32
  0
VERTEX
  8
C-TOPO-MINR
 10
1176.38
 20
5180.00
 30
113.00
 70
32
  0
SEQEND
  8
C-TOPO-MINR
  0
TEXT
  8
C-TOPO-SPOT
 10
1020.00
 20
5015.00
 30
0.0
 40
1.2
  1
101.58
  0
TEXT
  8
C-TOPO-SPOT
 10
1020.00
 20
5045.00
 30
0.0
 40
1.2
  1
102.76
  0
TEXT
  8
C-TOPO-SPOT
 10
1020.00
 20
5075.00
 30
0.0
 40
1.2
  1
103.83
  0
TEXT
  8
C-TOPO-SPOT
 10
1020.00
 20
5105.00
 30
0.0
 40
1.2
  1
104.88
  0
TEXT
  8
C-TOPO-SPOT
 10
1020.00
 20
5135.00
 30
0.0
 40
1.2
  1
105.98
  0
TEXT
  8
C-TOPO-SPOT
 10
1020.00
 20
5165.00
 30
0.0
 40
1.2
  1
107.53
  0
TEXT
  8
C-TOPO-SPOT
 10
1060.00
 20
5015.00
 30
0.0
 40
1.2
  1
100.44
  0
TEXT
  8
C-TOPO-SPOT
 10
1060.00
 20
5045.00
 30
0.0
 40
1.2
  1
102.00
  0
TEXT
  8
C-TOPO-SPOT
 10
1060.00
 20
5075.00
 30
0.0
 40
1.2
  1
102.30
  0
TEXT
  8
C-TOPO-SPOT
 10
1060.00
 20
5105.00
 30
0.0
 40
1.2
  1
104.46
  0
TEXT
  8
C-TOPO-SPOT
 10
1060.00
 20
5135.00
 30
0.0
 40
1.2
  1
106.21
  0
TEXT
  8
C-TOPO-SPOT
 10
1060.00
 20
5165.00
 30
0.0
 40
1.2
  1
106.67
  0
TEXT
  8
C-TOPO-SPOT
 10
1100.00
 20
5015.00
 30
0.0
 40
1.2
  1
103.39
  0
TEXT
  8
C-TOPO-SPOT
 10
1100.00
 20
5045.00
 30
0.0
 40
1.2
  1
104.64
  0
TEXT
  8
C-TOPO-SPOT
 10
1100.00
 20
5075.00
 30
0.0
 40
1.2
  1
105.85
  0
TEXT
  8
C-TOPO-SPOT
 10
1100.00
 20
5105.00
 30
0.0
 40
1.2
  1
107.07
  0
TEXT
  8
C-TOPO-SPOT
 10
1100.00
 20
5135.00
 30
0.0
 40
1.2
  1
108.35
  0
TEXT
  8
C-TOPO-SPOT
 10
1100.00
 20
5165.00
 30
0.0
 40
1.2
  1
109.73
  0
TEXT
  8
C-TOPO-SPOT
 10
1140.00
 20
5015.00
 30
0.0
 40
1.2
  1
103.60
  0
TEXT
  8
C-TOPO-SPOT
 10
1140.00
 20
5045.00
 30
0.0
 40
1.2
  1
105.20
  0
TEXT
  8
C-TOPO-SPOT
 10
1140.00
 20
5075.00
 30
0.0
 40
1.2
  1
106.93
  0
TEXT
  8
C-TOPO-SPOT
 10
1140.00
 20
5105.00
 30
0.0
 40
1.2
  1
108.64
  0
TEXT
  8
C-TOPO-SPOT
 10
1140.00
 20
5135.00
 30
0.0
 40
1.2
  1
110.17
  0
TEXT
  8
C-TOPO-SPOT
 10
1140.00
 20
5165.00
 30
0.0
 40
1.2
  1
111.45
  0
TEXT
  8
C-TOPO-SPOT
 10
1180.00
 20
5015.00
 30
0.0
 40
1.2
  1
104.49
  0
TEXT
  8
C-TOPO-SPOT
 10
1180.00
 20
5045.00
 30
0.0
 40
1.2
  1
106.13
  0
TEXT
  8
C-TOPO-SPOT
 10
1180.00
 20
5075.00
 30
0.0
 40
1.2
  1
107.94
  0
TEXT
  8
C-TOPO-SPOT
 10
1180.00
 20
5105.00
 30
0.0
 40
1.2
  1
109.73
  0
TEXT
  8
C-TOPO-SPOT
 10
1180.00
 20
5135.00
 30
0.0
 40
1.2
  1
111.29
  0
TEXT
  8
C-TOPO-SPOT
 10
1180.00
 20
5165.00
 30
0.0
 40
1.2
  1
112.55
  0
TEXT
  8
C-TOPO-SPOT
 10
1220.00
 20
5015.00
 30
0.0
 40
1.2
  1
106.18
  0
TEXT
  8
C-TOPO-SPOT
 10
1220.00
 20
5045.00
 30
0.0
 40
1.2
  1
107.53
  0
TEXT
  8
C-TOPO-SPOT
 10
1220.00
 20
5075.00
 30
0.0
 40
1.2
  1
108.87
  0
TEXT
  8
C-TOPO-SPOT
 10
1220.00
 20
5105.00
 30
0.0
 40
1.2
  1
110.22
  0
TEXT
  8
C-TOPO-SPOT
 10
1220.00
 20
5135.00
 30
0.0
 40
1.2
  1
111.57
  0
TEXT
  8
C-TOPO-SPOT
 10
1220.00
 20
5165.00
 30
0.0
 40
1.2
  1
112.92
  0
ENDSEC
  0
EOF
